<svg xmlns="http://www.w3.org/2000/svg" width="20" height="20" fill="none" viewBox="0 0 20 20"><path fill="#50575E" d="M17.237 2.242H15a.266.266 0 0 0-.266.266c0 .146.12.266.265.266h2.504v-.532h-.266Zm-.266 15.144h.532v.542h-.532v-.542Zm0-10.826h.532v.542h-.532V6.56Zm0-1.081h.532v.542h-.532v-.542Zm0-2.166h.532v.542h-.532v-.542Zm0 1.084h.532v.542h-.532v-.542Zm0 3.248h.532v.542h-.532v-.542Zm0 1.52v7.68h.532V8.725h-.532v.438Zm0 9.305h.532v.532h-.532v-.532Zm-8.679 0h.543v.532h-.543v-.532Zm1.085 0h.542v.532h-.542v-.532Zm1.086 0h.543v.532h-.543v-.532Zm5.424 0h.542v.532h-.542v-.532Zm-4.34 0h.543v.532h-.542v-.532Zm2.172 0h.542v.532h-.542v-.532Zm1.084 0h.542v.532h-.542v-.532Zm-2.171 0h.542v.532h-.542v-.532Zm-5.424 0H5.58V16.5a.266.266 0 0 0-.265-.266.266.266 0 0 0-.266.266v2.503H7.75v-.532h-.542Z"/><path fill="#fff" d="M14.999.264v16.228H3.075V4.526L7.338.264h7.66Z"/><path fill="#50575E" d="M14.999 16.757H3.075a.266.266 0 0 1-.265-.266V4.525c0-.071.029-.138.077-.188L7.149.077A.263.263 0 0 1 7.338 0H15c.147 0 .266.12.266.266v16.228a.267.267 0 0 1-.268.263ZM3.34 16.226h11.392V.529H7.447L3.34 4.634v11.592Z"/><path fill="#50575E" d="M4.965 6.518h8.147v.531H4.965v-.531Zm0 2.375h8.147v.532H4.965v-.532Zm0 2.376h8.147v.531H4.965v-.531Zm0 2.376h8.147v.531H4.965v-.531Z"/><path fill="#ED1C24" d="M11.75 10.989c-.816 0-1.634-.311-2.256-.933A3.168 3.168 0 0 1 8.559 7.8c0-.853.332-1.653.935-2.256a3.195 3.195 0 0 1 4.512 0c.603.603.935 1.403.935 2.256 0 .853-.332 1.653-.935 2.256a3.178 3.178 0 0 1-2.256.933Zm0-5.846c-.68 0-1.36.26-1.879.778a2.64 2.64 0 0 0-.778 1.88c0 .709.276 1.378.778 1.878a2.662 2.662 0 0 0 3.76 0A2.64 2.64 0 0 0 14.41 7.8c0-.71-.276-1.379-.779-1.879a2.64 2.64 0 0 0-1.881-.778Z"/><path fill="#50575E" d="M11.75 12.2a4.385 4.385 0 0 1-3.112-1.287 4.404 4.404 0 0 1 0-6.223 4.404 4.404 0 0 1 6.223 0 4.404 4.404 0 0 1 0 6.223A4.376 4.376 0 0 1 11.75 12.2Zm0-8.268c-.991 0-1.983.378-2.737 1.132a3.875 3.875 0 0 0 0 5.475 3.875 3.875 0 0 0 5.474 0 3.875 3.875 0 0 0 0-5.474 3.859 3.859 0 0 0-2.737-1.133Z"/><path fill="#50575E" d="M8.825 4.872a4.135 4.135 0 0 0 0 5.849 4.135 4.135 0 0 0 5.849 0 4.135 4.135 0 0 0 0-5.85 4.135 4.135 0 0 0-5.849 0Zm4.993 4.993a2.922 2.922 0 0 1-4.135 0 2.922 2.922 0 0 1 0-4.135 2.922 2.922 0 0 1 4.135 0 2.927 2.927 0 0 1 0 4.135Z"/><path fill="#fff" d="M8.825 4.872a4.135 4.135 0 0 0 0 5.849 4.135 4.135 0 0 0 5.849 0 4.135 4.135 0 0 0 0-5.85 4.135 4.135 0 0 0-5.849 0Zm5.543 5.543A3.702 3.702 0 1 1 9.133 5.18a3.702 3.702 0 0 1 5.235 5.235Z"/><path fill="#fff" d="M13.819 9.87A2.926 2.926 0 1 0 9.68 5.731a2.926 2.926 0 0 0 4.138 4.137Z"/><path fill="#50575E" d="M11.75 10.989c-.816 0-1.634-.311-2.256-.933A3.168 3.168 0 0 1 8.559 7.8c0-.853.332-1.653.935-2.256a3.195 3.195 0 0 1 4.512 0c.603.603.935 1.403.935 2.256 0 .853-.332 1.653-.935 2.256a3.178 3.178 0 0 1-2.256.933Zm0-5.846c-.68 0-1.36.26-1.879.778a2.64 2.64 0 0 0-.778 1.88c0 .709.276 1.378.778 1.878a2.662 2.662 0 0 0 3.76 0A2.64 2.64 0 0 0 14.41 7.8c0-.71-.276-1.379-.779-1.879a2.64 2.64 0 0 0-1.881-.778Z"/><path fill="#50575E" d="M11.75 12.2a4.385 4.385 0 0 1-3.112-1.287 4.404 4.404 0 0 1 0-6.223 4.404 4.404 0 0 1 6.223 0 4.404 4.404 0 0 1 0 6.223A4.376 4.376 0 0 1 11.75 12.2Zm0-8.268c-.991 0-1.983.378-2.737 1.132a3.875 3.875 0 0 0 0 5.475 3.875 3.875 0 0 0 5.474 0 3.875 3.875 0 0 0 0-5.474 3.859 3.859 0 0 0-2.737-1.133Z"/><path fill="#fff" d="M14.675 10.722c-.18.181-.372.34-.573.481l3.233 3.234a.74.74 0 0 0 1.047.003l.006-.005.005-.006a.742.742 0 0 0-.003-1.047l-3.234-3.234c-.14.202-.3.396-.48.574Z"/><path fill="#50575E" d="M14.675 10.725a.927.927 0 0 1-.292.197l3.234 3.234c.29.29.632.417.768.284l.002-.002.003-.003c.133-.133.003-.479-.284-.768l-3.234-3.232a.948.948 0 0 1-.197.29Z"/><path fill="#50575E" d="M17.861 14.921a1.01 1.01 0 0 1-.715-.294l-3.46-3.46.264-.181a3.806 3.806 0 0 0 .989-.989l.18-.263 3.46 3.46a1.01 1.01 0 0 1 .005 1.424l-.01.011c-.2.197-.455.293-.713.293Zm-3.356-3.688 3.019 3.019a.475.475 0 0 0 .672.002l.01-.01a.477.477 0 0 0-.005-.672l-3.018-3.02a4.58 4.58 0 0 1-.678.681ZM11.75 8.608a.805.805 0 1 0 0-1.61.805.805 0 0 0 0 1.61Z"/><path fill="#50575E" d="M11.75 9.046c-1.178 0-2.1-1.023-2.137-1.068l-.157-.176.157-.175c.04-.043.96-1.068 2.136-1.068 1.178 0 2.1 1.023 2.137 1.068l.157.175-.157.176c-.037.045-.96 1.068-2.137 1.068Zm-1.558-1.244c.287.26.888.712 1.56.712.675 0 1.273-.451 1.56-.712-.287-.26-.888-.712-1.56-.712s-1.273.452-1.56.712Z"/><path fill="#50575E" d="M11.75 8.874c-.59 0-1.071-.48-1.071-1.07 0-.59.48-1.072 1.07-1.072a1.071 1.071 0 0 1 0 2.142Zm0-1.61a.54.54 0 1 0 0 1.08.54.54 0 0 0 0-1.08ZM7.339 4.792H3.077a.262.262 0 0 1-.245-.165.267.267 0 0 1 .059-.29L7.153.079a.266.266 0 0 1 .454.186v4.26a.271.271 0 0 1-.268.268Zm-3.622-.531h3.354V.907L3.717 4.261ZM1.266 12.546l1.81-1.044 1.809 1.044v2.089l-1.81 1.047-1.81-1.047v-2.089Z"/><path fill="#50575E" d="M3.075 15.987 1 14.79v-2.397l2.075-1.199 2.076 1.199v2.397l-2.076 1.198Zm-1.544-1.504 1.544.89 1.544-.89V12.7l-1.544-.89-1.544.89v1.783ZM1.266 7.333l1.81-1.044 1.809 1.044v2.089l-1.81 1.044-1.81-1.044V7.333Z"/><path fill="#50575E" d="M3.075 10.774 1 9.576V7.179L3.075 5.98 5.151 7.18v2.397l-2.076 1.198ZM1.531 9.268l1.544.89 1.544-.89V7.485l-1.544-.89-1.544.89v1.783Z"/><path fill="#fff" d="m2.151 8.948 1.475-1.475.376.375-1.475 1.475-.376-.375Z"/><path fill="#fff" d="m2.151 7.85.376-.375L4.002 8.95l-.376.375L2.151 7.85ZM2.793 14.53l-.77-.77.348-.35.422.425.967-.968.348.348-1.315 1.316Z"/></svg>