<svg xmlns="http://www.w3.org/2000/svg" width="20" height="20" fill="none" viewBox="0 0 20 20"><path fill="#50575E" d="M13.287 19.75c-1.725 0-3.868-.636-5.536-1.715a.64.64 0 0 1-.281-.535v-1.111c0-.346.26-.625.583-.625s.583.28.583.625v.75c2.062 1.226 4.58 1.591 5.812 1.213.311-.096.53-.236.6-.386a1 1 0 0 1 .049-.084c.114-.17.088-.509-.077-1.007l-.008-.026a.76.76 0 0 1 .086-.637 17 17 0 0 0-.79-.47.64.64 0 0 1-.31-.685.6.6 0 0 1 .538-.497q.102-.006.252-.01c.14-.005.449-.016.713-.042-.119-.306-.19-.641-.03-.953a.74.74 0 0 1 .582-.402c.131-.019.28-.088.385-.155a12 12 0 0 0-.281-.34c-.554-.656-1.312-1.554-1.332-2.587-.028-2.35-.339-3.891-1.037-5.155-.958-1.585-2.708-2.553-4.753-2.657v2.407h.995c.323 0 .584.28.584.625s-.261.625-.584.625H8.453c-.322 0-.583-.28-.583-.625V1.628c0-.339.252-.616.568-.625 2.702-.074 5.07 1.14 6.337 3.245l.012.02c.813 1.467 1.174 3.197 1.206 5.782.01.562.624 1.289 1.03 1.77.36.425.597.706.66 1.038.051.243-.004.513-.156.748-.188.287-.517.512-.848.65l.014.032c.048.102.093.2.127.291l.012.036a.78.78 0 0 1-.093.659.83.83 0 0 1-.353.3l.062.039c.186.12.295.34.282.572-.021.398-.268.61-.48.726.12.517.156 1.131-.181 1.663-.233.456-.67.785-1.299.978a5 5 0 0 1-1.482.198m2.918-5.358-.013.003z"/><path fill="#50575E" d="M9.57 8.227H5.448c-.323 0-.584-.28-.584-.625V4.95c0-.345.261-.625.584-.625s.583.28.583.625v2.028h3.54c.323 0 .584.28.584.625s-.261.625-.583.625M4.786 14.607c-.322 0-.583-.28-.583-.625v-1.547c0-.345.261-.625.583-.625h4.927c.322 0 .583.28.583.625 0 .346-.261.625-.583.625H5.37v.922c0 .345-.261.625-.584.625M10.642 10.738H4.14c-.322 0-.583-.28-.583-.625s.26-.625.583-.625h6.502c.322 0 .584.28.584.625s-.262.625-.584.625M13.3 10.738h-.682c-.322 0-.583-.28-.583-.625s.261-.625.583-.625h.682c.322 0 .583.28.583.625s-.26.625-.583.625"/><path fill="#50575E" d="M5.446 5.366c-.696 0-1.263-.607-1.263-1.354 0-.746.567-1.354 1.263-1.354.697 0 1.264.608 1.264 1.354s-.567 1.354-1.264 1.354M10.982 6.563c-.696 0-1.263-.607-1.263-1.354 0-.746.567-1.354 1.263-1.354.697 0 1.264.608 1.264 1.354s-.567 1.354-1.264 1.354M3.264 11.47C2.567 11.47 2 10.862 2 10.116s.567-1.354 1.264-1.354c.696 0 1.263.607 1.263 1.354 0 .746-.567 1.354-1.263 1.354M4.787 16.276c-.697 0-1.264-.607-1.264-1.354 0-.746.567-1.354 1.264-1.354s1.264.607 1.264 1.354-.567 1.354-1.264 1.354M8.053 16.802c-.697 0-1.264-.608-1.264-1.354s.567-1.354 1.264-1.354 1.263.607 1.263 1.354c0 .746-.566 1.354-1.263 1.354"/></svg>