<svg width="20" height="20" viewBox="0 0 20 20" fill="none" xmlns="http://www.w3.org/2000/svg">
<path d="M13.2867 19.75C11.5619 19.75 9.41948 19.1139 7.75143 18.0347C7.57665 17.9214 7.46973 17.7185 7.46973 17.4998V16.3885C7.46973 16.0433 7.73082 15.7636 8.05296 15.7636C8.3751 15.7636 8.63619 16.0433 8.63619 16.3885V17.1394C10.6983 18.3648 13.2165 18.7302 14.4477 18.3517C14.7592 18.2561 14.9781 18.1155 15.0489 17.9659C15.0627 17.9368 15.0786 17.9089 15.0965 17.8822C15.2114 17.7122 15.1855 17.3735 15.0197 16.8755C15.0166 16.8667 15.0141 16.858 15.0115 16.8492C14.9728 16.7147 14.934 16.4547 15.0984 16.2121C14.8056 16.0304 14.5049 15.849 14.3072 15.7428C14.0706 15.6159 13.9434 15.3343 13.9971 15.0568C14.0509 14.7794 14.2724 14.5753 14.5364 14.5601C14.6027 14.5561 14.6892 14.553 14.7883 14.5494C14.9277 14.5446 15.2368 14.5338 15.5009 14.5082C15.3821 14.202 15.3107 13.8668 15.4707 13.5546C15.5864 13.3288 15.7987 13.1826 16.0532 13.1534C16.1844 13.1345 16.3325 13.0655 16.4377 12.9984C16.3551 12.8926 16.2464 12.7637 16.157 12.6579C15.6033 12.0022 14.8451 11.1038 14.8253 10.071C14.7965 7.72143 14.4862 6.17981 13.7883 4.91565C12.8298 3.33113 11.0803 2.36275 9.03532 2.25902V4.6659H10.0305C10.3527 4.6659 10.6137 4.94565 10.6137 5.2908C10.6137 5.63595 10.3527 5.91569 10.0305 5.91569H8.45209C8.12995 5.91569 7.86885 5.63595 7.86885 5.2908V1.62788C7.86885 1.28898 8.121 1.01173 8.43731 1.00319C11.1392 0.929248 13.5074 2.143 14.7743 4.24827C14.7782 4.25472 14.7819 4.26118 14.7856 4.26764C15.5994 5.7351 15.9599 7.46459 15.9916 10.0502C16.0024 10.6116 16.616 11.3387 17.0221 11.8197C17.3814 12.2452 17.6186 12.5262 17.6822 12.8581C17.7331 13.1011 17.6781 13.3707 17.5255 13.6056C17.3384 13.8933 17.0095 14.1185 16.6778 14.2561C16.6831 14.2674 16.6879 14.2778 16.6924 14.2876C16.74 14.3903 16.7853 14.4874 16.8188 14.5792C16.8229 14.5911 16.8269 14.603 16.8308 14.6153C16.8987 14.8408 16.8648 15.0806 16.7381 15.2737C16.6527 15.4039 16.5384 15.5007 16.3848 15.5732C16.4062 15.587 16.4272 15.6003 16.4471 15.613C16.6331 15.7326 16.742 15.9529 16.7293 16.185C16.708 16.5826 16.4609 16.7947 16.249 16.9105C16.3697 17.4279 16.4049 18.0424 16.0676 18.5742C15.8352 19.0299 15.3986 19.359 14.7691 19.5523C14.3356 19.6863 13.8318 19.75 13.2867 19.75ZM16.2052 14.3924C16.2011 14.3932 16.1967 14.3938 16.1924 14.3945C16.1965 14.394 16.2009 14.3932 16.2052 14.3924Z" fill="#50575E"/>
<path d="M9.57095 8.2273H5.44652C5.12438 8.2273 4.86328 7.94756 4.86328 7.60241V4.94911C4.86328 4.60396 5.12438 4.32422 5.44652 4.32422C5.76865 4.32422 6.02975 4.60396 6.02975 4.94911V6.97731H9.57076C9.8929 6.97731 10.154 7.25705 10.154 7.6022C10.154 7.94735 9.8929 8.2273 9.57095 8.2273Z" fill="#50575E"/>
<path d="M4.78636 14.6072C4.46422 14.6072 4.20312 14.3274 4.20312 13.9823V12.4354C4.20312 12.0903 4.46422 11.8105 4.78636 11.8105H9.71294C10.0351 11.8105 10.2962 12.0903 10.2962 12.4354C10.2962 12.7806 10.0349 13.0603 9.71294 13.0603H5.36959V13.9823C5.36959 14.3274 5.1085 14.6072 4.78636 14.6072Z" fill="#50575E"/>
<path d="M10.6423 10.7381H4.13987C3.81774 10.7381 3.55664 10.4583 3.55664 10.1132C3.55664 9.76803 3.81774 9.48828 4.13987 9.48828H10.6423C10.9645 9.48828 11.2256 9.76803 11.2256 10.1132C11.2256 10.4583 10.9645 10.7381 10.6423 10.7381Z" fill="#50575E"/>
<path d="M13.3002 10.7381H12.6184C12.2963 10.7381 12.0352 10.4583 12.0352 10.1132C12.0352 9.76803 12.2963 9.48828 12.6184 9.48828H13.3002C13.6223 9.48828 13.8834 9.76803 13.8834 10.1132C13.8834 10.4583 13.6223 10.7381 13.3002 10.7381Z" fill="#50575E"/>
<path d="M5.44629 5.36608C4.74952 5.36608 4.18262 4.75868 4.18262 4.01214C4.18262 3.2656 4.74952 2.6582 5.44629 2.6582C6.14306 2.6582 6.70996 3.2656 6.70996 4.01214C6.70996 4.75868 6.14326 5.36608 5.44629 5.36608Z" fill="#50575E"/>
<path d="M10.9824 6.56334C10.2857 6.56334 9.71875 5.95594 9.71875 5.2094C9.71875 4.46287 10.2857 3.85547 10.9824 3.85547C11.6792 3.85547 12.2461 4.46287 12.2461 5.2094C12.2461 5.95594 11.6792 6.56334 10.9824 6.56334Z" fill="#50575E"/>
<path d="M3.26367 11.4696C2.5669 11.4696 2 10.8622 2 10.1157C2 9.36912 2.5669 8.76172 3.26367 8.76172C3.96044 8.76172 4.52735 9.36912 4.52735 10.1157C4.52735 10.8622 3.96044 11.4696 3.26367 11.4696Z" fill="#50575E"/>
<path d="M4.78711 16.2764C4.09034 16.2764 3.52344 15.669 3.52344 14.9223C3.52344 14.1758 4.09034 13.5684 4.78711 13.5684C5.48388 13.5684 6.05078 14.1755 6.05078 14.9223C6.05098 15.669 5.48408 16.2764 4.78711 16.2764Z" fill="#50575E"/>
<path d="M8.05274 16.8016C7.35597 16.8016 6.78906 16.1942 6.78906 15.4477C6.78906 14.7011 7.35597 14.0938 8.05274 14.0938C8.74951 14.0938 9.31641 14.7009 9.31641 15.4477C9.31641 16.194 8.74951 16.8016 8.05274 16.8016Z" fill="#50575E"/>
</svg>
