<svg width="20" height="20" viewBox="0 0 20 20" fill="none" xmlns="http://www.w3.org/2000/svg">
<path d="M17.237 2.24219H14.9995C14.8533 2.24219 14.7338 2.36177 14.7338 2.50792C14.7338 2.65407 14.8533 2.77365 14.9995 2.77365H17.5027V2.24219H17.237ZM16.9712 17.3862H17.5027V17.9283H16.9712V17.3862ZM16.9712 6.56033H17.5027V7.10242H16.9712V6.56033ZM16.9712 5.4788H17.5027V6.02089H16.9712V5.4788ZM16.9712 3.31309H17.5027V3.85518H16.9712V3.31309ZM16.9712 4.39727H17.5027V4.93936H16.9712V4.39727ZM16.9712 7.64451H17.5027V8.1866H16.9712V7.64451ZM16.9712 9.1645V16.8441H17.5027V8.72604H16.9712V9.1645ZM16.9712 18.4704H17.5027V19.0019H16.9712V18.4704ZM8.29243 18.4704H8.83453V19.0019H8.29243V18.4704ZM9.37662 18.4704H9.91871V19.0019H9.37662V18.4704ZM10.4635 18.4704H11.0056V19.0019H10.4635V18.4704ZM15.887 18.4704H16.4291V19.0019H15.887V18.4704ZM11.5476 18.4704H12.0897V19.0019H11.5476V18.4704ZM13.7187 18.4704H14.2608V19.0019H13.7187V18.4704ZM14.8029 18.4704H15.345V19.0019H14.8029V18.4704ZM12.6318 18.4704H13.1739V19.0019H12.6318V18.4704ZM7.20825 18.4704H5.57931V16.4987C5.57931 16.3525 5.45974 16.233 5.31358 16.233C5.16743 16.233 5.04785 16.3525 5.04785 16.4987V19.0019H7.75034V18.4704H7.20825Z" fill="#50575E"/>
<path d="M14.9986 0.263672V16.4919H3.0752V4.52601L7.33753 0.263672H14.9986Z" fill="white"/>
<path d="M14.9987 16.757H3.0753C2.92915 16.757 2.80957 16.6375 2.80957 16.4913V4.52541C2.80957 4.45366 2.8388 4.38723 2.88663 4.33674L7.14897 0.077062C7.19946 0.026573 7.26589 0 7.33764 0H15.0013C15.1475 0 15.2671 0.119579 15.2671 0.265732V16.494C15.2644 16.6401 15.1475 16.757 14.9987 16.757V16.757ZM3.34103 16.2256H14.7329V0.528806H7.44659L3.34103 4.63436V16.2256Z" fill="#50575E"/>
<path d="M4.96484 6.51758H13.1122V7.04904H4.96484V6.51758ZM4.96484 8.89322H13.1122V9.42468H4.96484V8.89322ZM4.96484 11.2689H13.1122V11.8003H4.96484V11.2689ZM4.96484 13.6445H13.1122V14.176H4.96484V13.6445Z" fill="#50575E"/>
<path d="M11.75 10.9889C10.9342 10.9889 10.1158 10.678 9.49397 10.0562C8.89076 9.45296 8.55859 8.65311 8.55859 7.80011C8.55859 6.94711 8.89076 6.14726 9.49397 5.54405C10.7376 4.30042 12.7625 4.30042 14.0061 5.54405C14.6093 6.14726 14.9415 6.94711 14.9415 7.80011C14.9415 8.65311 14.6093 9.45296 14.0061 10.0562C13.3843 10.678 12.5685 10.9889 11.75 10.9889V10.9889ZM11.75 5.14279C11.0698 5.14279 10.3895 5.40321 9.87131 5.92138C9.36907 6.42362 9.09271 7.0906 9.09271 7.80011C9.09271 8.50961 9.36907 9.17925 9.87131 9.67883C10.9077 10.7152 12.5951 10.7152 13.6314 9.67883C14.1336 9.1766 14.41 8.50961 14.41 7.80011C14.41 7.0906 14.1336 6.42096 13.6314 5.92138C13.1132 5.40055 12.433 5.14279 11.75 5.14279Z" fill="#ED1C24"/>
<path d="M11.7498 12.1994C10.6231 12.1994 9.49637 11.7716 8.63806 10.9132C6.92143 9.19662 6.92143 6.40378 8.63806 4.68981C10.3547 2.97319 13.1475 2.97319 14.8615 4.68981C16.5781 6.40644 16.5781 9.19928 14.8615 10.9132C14.0058 11.7716 12.8791 12.1994 11.7498 12.1994V12.1994ZM11.7498 3.93248C10.7586 3.93248 9.76742 4.30982 9.01274 5.0645C7.50338 6.57385 7.50338 9.02921 9.01274 10.5386C10.5221 12.0479 12.9775 12.0479 14.4868 10.5386C15.9962 9.02921 15.9962 6.57385 14.4868 5.0645C13.7321 4.30982 12.741 3.93248 11.7498 3.93248Z" fill="#50575E"/>
<path d="M8.82502 4.87189C7.20937 6.48754 7.20937 9.105 8.82502 10.7206C10.4407 12.3363 13.0581 12.3363 14.6738 10.7206C16.2894 9.105 16.2894 6.48754 14.6738 4.87189C13.0581 3.25624 10.4407 3.25624 8.82502 4.87189V4.87189ZM13.8181 9.86499C12.6755 11.0076 10.8233 11.0076 9.68333 9.86499C8.54068 8.72234 8.54068 6.87019 9.68333 5.73021C10.826 4.58756 12.6781 4.58756 13.8181 5.73021C14.9581 6.87019 14.9581 8.72234 13.8181 9.86499Z" fill="#50575E"/>
<path d="M8.82502 4.87189C7.20937 6.48754 7.20937 9.105 8.82502 10.7206C10.4407 12.3363 13.0581 12.3363 14.6738 10.7206C16.2894 9.105 16.2894 6.48754 14.6738 4.87189C13.0581 3.25624 10.4407 3.25624 8.82502 4.87189V4.87189ZM14.3682 10.4151C12.9226 11.8606 10.5788 11.8606 9.13327 10.4151C7.68769 8.96947 7.68769 6.62572 9.13327 5.18014C10.5788 3.73456 12.9226 3.73456 14.3682 5.18014C15.8138 6.62572 15.8138 8.96947 14.3682 10.4151Z" fill="white"/>
<path d="M13.8187 9.86946C14.9612 8.72688 14.9612 6.87443 13.8186 5.73189C12.676 4.58935 10.8236 4.58938 9.68105 5.73196C8.53852 6.87454 8.53855 8.72699 9.68113 9.86953C10.8237 11.0121 12.6762 11.012 13.8187 9.86946Z" fill="white"/>
<path d="M11.75 10.9889C10.9342 10.9889 10.1158 10.678 9.49397 10.0562C8.89076 9.45296 8.55859 8.65311 8.55859 7.80011C8.55859 6.94711 8.89076 6.14726 9.49397 5.54405C10.7376 4.30042 12.7625 4.30042 14.0061 5.54405C14.6093 6.14726 14.9415 6.94711 14.9415 7.80011C14.9415 8.65311 14.6093 9.45296 14.0061 10.0562C13.3843 10.678 12.5685 10.9889 11.75 10.9889V10.9889ZM11.75 5.14279C11.0698 5.14279 10.3895 5.40321 9.87131 5.92138C9.36907 6.42362 9.09271 7.0906 9.09271 7.80011C9.09271 8.50961 9.36907 9.17925 9.87131 9.67883C10.9077 10.7152 12.5951 10.7152 13.6314 9.67883C14.1336 9.1766 14.41 8.50961 14.41 7.80011C14.41 7.0906 14.1336 6.42096 13.6314 5.92138C13.1132 5.40055 12.433 5.14279 11.75 5.14279Z" fill="#50575E"/>
<path d="M11.7498 12.1994C10.6231 12.1994 9.49637 11.7716 8.63806 10.9132C6.92143 9.19662 6.92143 6.40378 8.63806 4.68981C10.3547 2.97319 13.1475 2.97319 14.8615 4.68981C16.5781 6.40644 16.5781 9.19928 14.8615 10.9132C14.0058 11.7716 12.8791 12.1994 11.7498 12.1994V12.1994ZM11.7498 3.93248C10.7586 3.93248 9.76742 4.30982 9.01274 5.0645C7.50338 6.57385 7.50338 9.02921 9.01274 10.5386C10.5221 12.0479 12.9775 12.0479 14.4868 10.5386C15.9962 9.02921 15.9962 6.57385 14.4868 5.0645C13.7321 4.30982 12.741 3.93248 11.7498 3.93248Z" fill="#50575E"/>
<path d="M14.6755 10.7224C14.4948 10.9031 14.3035 11.0626 14.1016 11.2034L17.3355 14.4373C17.6252 14.727 18.0955 14.7297 18.3825 14.44L18.3878 14.4347L18.3931 14.4294C18.6828 14.1397 18.6775 13.6694 18.3905 13.3824L15.1565 10.1484C15.0157 10.3504 14.8562 10.5444 14.6755 10.7224Z" fill="white"/>
<path d="M14.6751 10.7252C14.5927 10.8076 14.4944 10.874 14.3828 10.9218L17.6168 14.1558C17.9064 14.4454 18.2492 14.573 18.3847 14.4401L18.3874 14.4375L18.39 14.4348C18.5229 14.3019 18.3927 13.9565 18.1057 13.6668L14.8718 10.4355C14.8239 10.5445 14.7575 10.6428 14.6751 10.7252V10.7252Z" fill="#50575E"/>
<path d="M17.8612 14.9215C17.6034 14.9215 17.343 14.8231 17.1463 14.6265L13.6865 11.1667L13.9496 10.986C14.1409 10.8531 14.3216 10.7016 14.489 10.5369C14.6538 10.3721 14.8053 10.1914 14.9381 9.99745L15.1188 9.73438L18.5786 13.1942C18.9719 13.5875 18.9746 14.2252 18.584 14.6185L18.5733 14.6292C18.374 14.8258 18.1189 14.9215 17.8612 14.9215V14.9215ZM14.505 11.2331L17.5237 14.2518C17.7097 14.4378 18.0126 14.4405 18.196 14.2545L18.2066 14.2438C18.39 14.0605 18.3873 13.7602 18.2013 13.5715L15.1826 10.5528C15.0816 10.6777 14.9753 10.7973 14.8611 10.9116C14.7495 11.0258 14.6299 11.1321 14.505 11.2331V11.2331Z" fill="#50575E"/>
<path d="M11.7495 8.60838C12.1942 8.60838 12.5547 8.2479 12.5547 7.80321C12.5547 7.35853 12.1942 6.99805 11.7495 6.99805C11.3048 6.99805 10.9443 7.35853 10.9443 7.80321C10.9443 8.2479 11.3048 8.60838 11.7495 8.60838Z" fill="#50575E"/>
<path d="M11.7493 9.04584C10.5721 9.04584 9.65004 8.02278 9.61284 7.9776L9.45605 7.80222L9.61284 7.62684C9.6527 7.58432 10.5721 6.55859 11.7493 6.55859C12.9265 6.55859 13.8486 7.58166 13.8858 7.62684L14.0426 7.80222L13.8858 7.9776C13.8486 8.02278 12.9265 9.04584 11.7493 9.04584ZM10.1921 7.80222C10.4791 8.06264 11.0797 8.51438 11.752 8.51438C12.4269 8.51438 13.0248 8.06264 13.3118 7.80222C13.0248 7.5418 12.4243 7.09006 11.752 7.09006C11.0797 7.09006 10.4791 7.5418 10.1921 7.80222V7.80222Z" fill="#50575E"/>
<path d="M11.7496 8.87422C11.1597 8.87422 10.6787 8.39325 10.6787 7.80332C10.6787 7.2134 11.1597 6.73242 11.7496 6.73242C12.3395 6.73242 12.8205 7.2134 12.8205 7.80332C12.8205 8.39325 12.3422 8.87422 11.7496 8.87422ZM11.7496 7.26389C11.452 7.26389 11.2102 7.5057 11.2102 7.80332C11.2102 8.10094 11.452 8.34276 11.7496 8.34276C12.0472 8.34276 12.289 8.10094 12.289 7.80332C12.289 7.5057 12.0472 7.26389 11.7496 7.26389Z" fill="#50575E"/>
<path d="M7.33899 4.79222H3.07666C2.97037 4.79222 2.87204 4.72845 2.83218 4.62747C2.79233 4.52915 2.81358 4.41489 2.89065 4.33782L7.15298 0.0781458C7.23004 0.00108365 7.34431 -0.0201748 7.44263 0.0196849C7.54095 0.0595447 7.60738 0.157865 7.60738 0.264158V4.52384C7.60472 4.67264 7.48515 4.79222 7.33899 4.79222V4.79222ZM3.71707 4.26076H7.0706V0.907228L3.71707 4.26076Z" fill="#50575E"/>
<path d="M1.26562 12.5463L3.07526 11.502L4.88489 12.5463V14.6349L3.07526 15.6819L1.26562 14.6349V12.5463Z" fill="#50575E"/>
<path d="M3.07536 15.9872L1 14.7887V12.3918L3.07536 11.1934L5.15073 12.3918V14.7887L3.07536 15.9872V15.9872ZM1.53146 14.4831L3.07536 15.3733L4.61926 14.4831V12.7001L3.07536 11.8099L1.53146 12.7001V14.4831Z" fill="#50575E"/>
<path d="M1.26562 7.33339L3.07526 6.28906L4.88489 7.33339V9.42204L3.07526 10.4664L1.26562 9.42204V7.33339Z" fill="#50575E"/>
<path d="M3.07536 10.7743L1 9.57582V7.17892L3.07536 5.98047L5.15073 7.17892V9.57582L3.07536 10.7743V10.7743ZM1.53146 9.26757L3.07536 10.1578L4.61926 9.26757V7.48451L3.07536 6.59431L1.53146 7.48451V9.26757V9.26757Z" fill="#50575E"/>
<path d="M2.15137 8.94765L3.62636 7.47266L4.00216 7.84845L2.52716 9.32345L2.15137 8.94765Z" fill="white"/>
<path d="M2.15137 7.85041L2.52716 7.47461L4.00216 8.94961L3.62636 9.3254L2.15137 7.85041Z" fill="white"/>
<path d="M2.79308 14.5307L2.02246 13.76L2.37057 13.4093L2.79308 13.8345L3.76035 12.8672L4.10845 13.2153L2.79308 14.5307Z" fill="white"/>
</svg>
