<svg width="512" height="512" viewBox="0 0 512 512" fill="none" xmlns="http://www.w3.org/2000/svg">
<rect width="512" height="512" fill="#030929"/>
<path d="M343.542 478.863C299.598 478.863 245.013 463.736 202.515 438.073C198.062 435.379 195.338 430.554 195.338 425.354V398.928C195.338 390.721 201.99 384.069 210.197 384.069C218.405 384.069 225.057 390.721 225.057 398.928V416.785C277.595 445.924 341.754 454.612 373.123 445.612C381.058 443.339 386.635 439.995 388.438 436.439C388.79 435.745 389.196 435.082 389.651 434.448C392.579 430.406 391.92 422.352 387.695 410.509C387.616 410.301 387.551 410.093 387.487 409.885C386.501 406.685 385.511 400.503 389.701 394.733C382.242 390.414 374.579 386.1 369.542 383.573C363.514 380.557 360.274 373.86 361.641 367.263C363.013 360.665 368.655 355.811 375.381 355.449C377.07 355.355 379.275 355.281 381.801 355.197C385.352 355.083 393.228 354.825 399.954 354.216C396.928 346.935 395.11 338.965 399.186 331.54C402.134 326.171 407.542 322.694 414.026 322C417.37 321.55 421.144 319.91 423.824 318.315C421.718 315.799 418.95 312.733 416.671 310.217C402.564 294.624 383.247 273.261 382.742 248.703C382.009 192.831 374.103 156.173 356.321 126.112C331.902 88.4328 287.329 65.4054 235.226 62.9387V120.173H260.581C268.789 120.173 275.441 126.825 275.441 135.032C275.441 143.24 268.789 149.892 260.581 149.892H220.366C212.159 149.892 205.507 143.24 205.507 135.032V47.9306C205.507 39.8717 211.931 33.279 219.99 33.076C288.829 31.3176 349.164 60.1798 381.444 110.242C381.543 110.395 381.637 110.549 381.731 110.702C402.465 145.598 411.649 186.724 412.456 248.208C412.733 261.557 428.366 278.848 438.713 290.285C447.866 300.405 453.909 307.086 455.529 314.977C456.827 320.757 455.425 327.167 451.537 332.754C446.772 339.594 438.391 344.949 429.941 348.223C430.074 348.49 430.198 348.738 430.312 348.971C431.526 351.412 432.68 353.721 433.532 355.905C433.636 356.187 433.74 356.47 433.839 356.762C435.568 362.126 434.706 367.827 431.476 372.419C429.302 375.515 426.389 377.818 422.476 379.542C423.021 379.868 423.556 380.185 424.061 380.488C428.801 383.331 431.575 388.571 431.253 394.089C430.708 403.545 424.413 408.587 419.014 411.341C422.09 423.645 422.986 438.257 414.393 450.902C408.474 461.74 397.349 469.566 381.31 474.162C370.265 477.347 357.431 478.863 343.542 478.863ZM417.9 351.462C417.796 351.482 417.682 351.497 417.573 351.512C417.677 351.502 417.791 351.482 417.9 351.462Z" fill="#EFEFEF"/>
<path d="M248.907 204.887H143.825C135.618 204.887 128.966 198.235 128.966 190.027V126.934C128.966 118.726 135.618 112.074 143.825 112.074C152.033 112.074 158.685 118.726 158.685 126.934V175.163H248.902C257.11 175.163 263.762 181.815 263.762 190.023C263.762 198.23 257.11 204.887 248.907 204.887Z" fill="#EFEFEF"/>
<path d="M127.019 356.619C118.811 356.619 112.159 349.967 112.159 341.759V304.977C112.159 296.769 118.811 290.117 127.019 290.117H252.537C260.745 290.117 267.397 296.769 267.397 304.977C267.397 313.184 260.74 319.836 252.537 319.836H141.878V341.759C141.878 349.967 135.226 356.619 127.019 356.619Z" fill="#EFEFEF"/>
<path d="M276.189 264.598H110.519C102.312 264.598 95.6597 257.946 95.6597 249.738C95.6597 241.531 102.312 234.879 110.519 234.879H276.189C284.396 234.879 291.048 241.531 291.048 249.738C291.048 257.946 284.396 264.598 276.189 264.598Z" fill="#EFEFEF"/>
<path d="M343.919 264.598H326.548C318.341 264.598 311.688 257.946 311.688 249.738C311.688 241.531 318.341 234.879 326.548 234.879H343.919C352.126 234.879 358.778 241.531 358.778 249.738C358.778 257.946 352.126 264.598 343.919 264.598Z" fill="#EFEFEF"/>
<path d="M143.825 136.806C126.072 136.806 111.629 122.362 111.629 104.61C111.629 86.8576 126.072 72.4141 143.825 72.4141C161.577 72.4141 176.02 86.8576 176.02 104.61C176.02 122.362 161.582 136.806 143.825 136.806Z" fill="#EFEFEF"/>
<path d="M284.862 165.287C267.11 165.287 252.666 150.843 252.666 133.091C252.666 115.339 267.11 100.896 284.862 100.896C302.614 100.896 317.057 115.339 317.057 133.091C317.057 150.843 302.614 165.287 284.862 165.287Z" fill="#EFEFEF"/>
<path d="M88.1957 281.934C70.4435 281.934 56 267.491 56 249.739C56 231.986 70.4435 217.543 88.1957 217.543C105.948 217.543 120.391 231.986 120.391 249.739C120.391 267.491 105.948 281.934 88.1957 281.934Z" fill="#EFEFEF"/>
<path d="M127.019 396.278C109.267 396.278 94.8232 381.835 94.8232 364.078C94.8232 346.325 109.267 331.882 127.019 331.882C144.771 331.882 159.215 346.32 159.215 364.078C159.22 381.835 144.776 396.278 127.019 396.278Z" fill="#EFEFEF"/>
<path d="M210.197 408.795C192.445 408.795 178.001 394.351 178.001 376.599C178.001 358.847 192.445 344.403 210.197 344.403C227.949 344.403 242.393 358.842 242.393 376.599C242.393 394.346 227.949 408.795 210.197 408.795Z" fill="#EFEFEF"/>
</svg>
